{
    "asset" : {
        "generator" : "Khronos glTF Blender I/O v1.4.40",
        "version" : "2.0"
    },
    "scene" : 0,
    "scenes" : [
        {
            "name" : "Scene",
            "nodes" : [
                0
            ]
        }
    ],
    "nodes" : [
        {
            "mesh" : 0,
            "name" : "5060e.132",
            "rotation" : [
                0.7071068286895752,
                0,
                0,
                0.7071067094802856
            ],
            "translation" : [
                -1.6708037853240967,
                0,
                0
            ]
        }
    ],
    "materials" : [
        {
            "doubleSided" : true,
            "name" : "Material.006",
            "pbrMetallicRoughness" : {
                "baseColorFactor" : [
                    0.8000000715255737,
                    0.7860265970230103,
                    0,
                    1
                ],
                "metallicFactor" : 0,
                "roughnessFactor" : 0
            }
        },
        {
            "doubleSided" : true,
            "name" : "Default OBJ.001",
            "pbrMetallicRoughness" : {
                "baseColorFactor" : [
                    0.004895665682852268,
                    0.004895665682852268,
                    0.004895665682852268,
                    1
                ],
                "metallicFactor" : 0,
                "roughnessFactor" : 0.5
            }
        }
    ],
    "meshes" : [
        {
            "name" : "5060e.135",
            "primitives" : [
                {
                    "attributes" : {
                        "POSITION" : 0,
                        "NORMAL" : 1,
                        "TEXCOORD_0" : 2
                    },
                    "indices" : 3,
                    "material" : 0
                },
                {
                    "attributes" : {
                        "POSITION" : 4,
                        "NORMAL" : 5,
                        "TEXCOORD_0" : 6
                    },
                    "indices" : 7,
                    "material" : 1
                }
            ]
        }
    ],
    "accessors" : [
        {
            "bufferView" : 0,
            "componentType" : 5126,
            "count" : 695,
            "max" : [
                23.3799991607666,
                -48.896400451660156,
                -144.88099670410156
            ],
            "min" : [
                -23.364599227905273,
                -106.43499755859375,
                -197.28900146484375
            ],
            "type" : "VEC3"
        },
        {
            "bufferView" : 1,
            "componentType" : 5126,
            "count" : 695,
            "type" : "VEC3"
        },
        {
            "bufferView" : 2,
            "componentType" : 5126,
            "count" : 695,
            "type" : "VEC2"
        },
        {
            "bufferView" : 3,
            "componentType" : 5123,
            "count" : 3270,
            "type" : "SCALAR"
        },
        {
            "bufferView" : 4,
            "componentType" : 5126,
            "count" : 658,
            "max" : [
                31.645099639892578,
                -62.20709991455078,
                -168.57899475097656
            ],
            "min" : [
                -31.62969970703125,
                -102.0260009765625,
                -178.03599548339844
            ],
            "type" : "VEC3"
        },
        {
            "bufferView" : 5,
            "componentType" : 5126,
            "count" : 658,
            "type" : "VEC3"
        },
        {
            "bufferView" : 6,
            "componentType" : 5126,
            "count" : 658,
            "type" : "VEC2"
        },
        {
            "bufferView" : 7,
            "componentType" : 5123,
            "count" : 2514,
            "type" : "SCALAR"
        }
    ],
    "bufferViews" : [
        {
            "buffer" : 0,
            "byteLength" : 8340,
            "byteOffset" : 0
        },
        {
            "buffer" : 0,
            "byteLength" : 8340,
            "byteOffset" : 8340
        },
        {
            "buffer" : 0,
            "byteLength" : 5560,
            "byteOffset" : 16680
        },
        {
            "buffer" : 0,
            "byteLength" : 6540,
            "byteOffset" : 22240
        },
        {
            "buffer" : 0,
            "byteLength" : 7896,
            "byteOffset" : 28780
        },
        {
            "buffer" : 0,
            "byteLength" : 7896,
            "byteOffset" : 36676
        },
        {
            "buffer" : 0,
            "byteLength" : 5264,
            "byteOffset" : 44572
        },
        {
            "buffer" : 0,
            "byteLength" : 5028,
            "byteOffset" : 49836
        }
    ],
    "buffers" : [
        {
            "byteLength" : 54864,
            "uri" : "data:application/octet-stream;base64,"
        }
    ]
}
