{
    "asset" : {
        "generator" : "Khronos glTF Blender I/O v1.4.40",
        "version" : "2.0"
    },
    "scene" : 0,
    "scenes" : [
        {
            "name" : "Scene",
            "nodes" : [
                0
            ]
        }
    ],
    "nodes" : [
        {
            "mesh" : 0,
            "name" : "5060e.078",
            "rotation" : [
                0.7071068286895752,
                0,
                0,
                0.7071067094802856
            ],
            "translation" : [
                -1.4067888259887695,
                0,
                0
            ]
        }
    ],
    "materials" : [
        {
            "doubleSided" : true,
            "name" : "Default OBJ",
            "pbrMetallicRoughness" : {
                "baseColorFactor" : [
                    0.014669538475573063,
                    0.014669538475573063,
                    0.014669538475573063,
                    1
                ],
                "metallicFactor" : 0,
                "roughnessFactor" : 0.5
            }
        }
    ],
    "meshes" : [
        {
            "name" : "5060e.078",
            "primitives" : [
                {
                    "attributes" : {
                        "POSITION" : 0,
                        "NORMAL" : 1,
                        "TEXCOORD_0" : 2
                    },
                    "indices" : 3,
                    "material" : 0
                }
            ]
        }
    ],
    "accessors" : [
        {
            "bufferView" : 0,
            "componentType" : 5126,
            "count" : 515,
            "max" : [
                -14.405599594116211,
                -58.58679962158203,
                -88.05049896240234
            ],
            "min" : [
                -37.68960189819336,
                -83.67220306396484,
                -112.9729995727539
            ],
            "type" : "VEC3"
        },
        {
            "bufferView" : 1,
            "componentType" : 5126,
            "count" : 515,
            "type" : "VEC3"
        },
        {
            "bufferView" : 2,
            "componentType" : 5126,
            "count" : 515,
            "type" : "VEC2"
        },
        {
            "bufferView" : 3,
            "componentType" : 5123,
            "count" : 1404,
            "type" : "SCALAR"
        }
    ],
    "bufferViews" : [
        {
            "buffer" : 0,
            "byteLength" : 6180,
            "byteOffset" : 0
        },
        {
            "buffer" : 0,
            "byteLength" : 6180,
            "byteOffset" : 6180
        },
        {
            "buffer" : 0,
            "byteLength" : 4120,
            "byteOffset" : 12360
        },
        {
            "buffer" : 0,
            "byteLength" : 2808,
            "byteOffset" : 16480
        }
    ],
    "buffers" : [
        {
            "byteLength" : 19288,
            "uri" : "data:application/octet-stream;base64,"
        }
    ]
}
