{
    "asset" : {
        "generator" : "Khronos glTF Blender I/O v1.4.40",
        "version" : "2.0"
    },
    "scene" : 0,
    "scenes" : [
        {
            "name" : "Scene",
            "nodes" : [
                0
            ]
        }
    ],
    "nodes" : [
        {
            "mesh" : 0,
            "name" : "5060e.133",
            "rotation" : [
                0.7071068286895752,
                0,
                0,
                0.7071067094802856
            ],
            "translation" : [
                -1.6708037853240967,
                0,
                0
            ]
        }
    ],
    "materials" : [
        {
            "doubleSided" : true,
            "name" : "Default OBJ.001",
            "pbrMetallicRoughness" : {
                "baseColorFactor" : [
                    0.004895665682852268,
                    0.004895665682852268,
                    0.004895665682852268,
                    1
                ],
                "metallicFactor" : 0,
                "roughnessFactor" : 0.5
            }
        },
        {
            "doubleSided" : true,
            "name" : "Material",
            "pbrMetallicRoughness" : {
                "baseColorFactor" : [
                    0.8000000715255737,
                    0.19073693454265594,
                    4.990263551007956e-05,
                    1
                ],
                "metallicFactor" : 0,
                "roughnessFactor" : 0
            }
        }
    ],
    "meshes" : [
        {
            "name" : "5060e.136",
            "primitives" : [
                {
                    "attributes" : {
                        "POSITION" : 0,
                        "NORMAL" : 1,
                        "TEXCOORD_0" : 2
                    },
                    "indices" : 3,
                    "material" : 0
                },
                {
                    "attributes" : {
                        "POSITION" : 4,
                        "NORMAL" : 5,
                        "TEXCOORD_0" : 6
                    },
                    "indices" : 7,
                    "material" : 1
                }
            ]
        }
    ],
    "accessors" : [
        {
            "bufferView" : 0,
            "componentType" : 5126,
            "count" : 121,
            "max" : [
                11.137200355529785,
                -5.80689001083374,
                -167.5679931640625
            ],
            "min" : [
                8.558810234069824,
                -9.671710014343262,
                -171.4459991455078
            ],
            "type" : "VEC3"
        },
        {
            "bufferView" : 1,
            "componentType" : 5126,
            "count" : 121,
            "type" : "VEC3"
        },
        {
            "bufferView" : 2,
            "componentType" : 5126,
            "count" : 121,
            "type" : "VEC2"
        },
        {
            "bufferView" : 3,
            "componentType" : 5123,
            "count" : 426,
            "type" : "SCALAR"
        },
        {
            "bufferView" : 4,
            "componentType" : 5126,
            "count" : 101,
            "max" : [
                10.779899597167969,
                -7.188529968261719,
                -168.10899353027344
            ],
            "min" : [
                8.98157024383545,
                -9.482649803161621,
                -171.0330047607422
            ],
            "type" : "VEC3"
        },
        {
            "bufferView" : 5,
            "componentType" : 5126,
            "count" : 101,
            "type" : "VEC3"
        },
        {
            "bufferView" : 6,
            "componentType" : 5126,
            "count" : 101,
            "type" : "VEC2"
        },
        {
            "bufferView" : 7,
            "componentType" : 5123,
            "count" : 372,
            "type" : "SCALAR"
        }
    ],
    "bufferViews" : [
        {
            "buffer" : 0,
            "byteLength" : 1452,
            "byteOffset" : 0
        },
        {
            "buffer" : 0,
            "byteLength" : 1452,
            "byteOffset" : 1452
        },
        {
            "buffer" : 0,
            "byteLength" : 968,
            "byteOffset" : 2904
        },
        {
            "buffer" : 0,
            "byteLength" : 852,
            "byteOffset" : 3872
        },
        {
            "buffer" : 0,
            "byteLength" : 1212,
            "byteOffset" : 4724
        },
        {
            "buffer" : 0,
            "byteLength" : 1212,
            "byteOffset" : 5936
        },
        {
            "buffer" : 0,
            "byteLength" : 808,
            "byteOffset" : 7148
        },
        {
            "buffer" : 0,
            "byteLength" : 744,
            "byteOffset" : 7956
        }
    ],
    "buffers" : [
        {
            "byteLength" : 8700,
            "uri" : "data:application/octet-stream;base64,"
        }
    ]
}
