{
    "asset" : {
        "generator" : "Khronos glTF Blender I/O v1.4.40",
        "version" : "2.0"
    },
    "scene" : 0,
    "scenes" : [
        {
            "name" : "Scene",
            "nodes" : [
                0
            ]
        }
    ],
    "nodes" : [
        {
            "mesh" : 0,
            "name" : "5060e.107",
            "rotation" : [
                0.7071068286895752,
                0,
                0,
                0.7071067094802856
            ],
            "translation" : [
                -1.4067888259887695,
                0,
                0
            ]
        }
    ],
    "materials" : [
        {
            "doubleSided" : true,
            "name" : "Material",
            "pbrMetallicRoughness" : {
                "baseColorFactor" : [
                    0.8000000715255737,
                    0.19073693454265594,
                    4.990263551007956e-05,
                    1
                ],
                "metallicFactor" : 0,
                "roughnessFactor" : 0
            }
        },
        {
            "doubleSided" : true,
            "name" : "Default OBJ",
            "pbrMetallicRoughness" : {
                "baseColorFactor" : [
                    0.014669538475573063,
                    0.014669538475573063,
                    0.014669538475573063,
                    1
                ],
                "metallicFactor" : 0,
                "roughnessFactor" : 0.5
            }
        },
        {
            "doubleSided" : true,
            "name" : "Material.006",
            "pbrMetallicRoughness" : {
                "baseColorFactor" : [
                    0.8000000715255737,
                    0.7860265970230103,
                    0,
                    1
                ],
                "metallicFactor" : 0,
                "roughnessFactor" : 0
            }
        }
    ],
    "meshes" : [
        {
            "name" : "5060e.160",
            "primitives" : [
                {
                    "attributes" : {
                        "POSITION" : 0,
                        "NORMAL" : 1,
                        "TEXCOORD_0" : 2
                    },
                    "indices" : 3,
                    "material" : 0
                },
                {
                    "attributes" : {
                        "POSITION" : 4,
                        "NORMAL" : 5,
                        "TEXCOORD_0" : 6
                    },
                    "indices" : 7,
                    "material" : 1
                },
                {
                    "attributes" : {
                        "POSITION" : 8,
                        "NORMAL" : 9,
                        "TEXCOORD_0" : 10
                    },
                    "indices" : 11,
                    "material" : 2
                }
            ]
        }
    ],
    "accessors" : [
        {
            "bufferView" : 0,
            "componentType" : 5126,
            "count" : 307,
            "max" : [
                -80.52249908447266,
                31.992799758911133,
                -114.50599670410156
            ],
            "min" : [
                -89.9718017578125,
                5.52623987197876,
                -132.97000122070312
            ],
            "type" : "VEC3"
        },
        {
            "bufferView" : 1,
            "componentType" : 5126,
            "count" : 307,
            "type" : "VEC3"
        },
        {
            "bufferView" : 2,
            "componentType" : 5126,
            "count" : 307,
            "type" : "VEC2"
        },
        {
            "bufferView" : 3,
            "componentType" : 5123,
            "count" : 975,
            "type" : "SCALAR"
        },
        {
            "bufferView" : 4,
            "componentType" : 5126,
            "count" : 214,
            "max" : [
                -69.54550170898438,
                41.23860168457031,
                -108.80000305175781
            ],
            "min" : [
                -96.60079956054688,
                -12.759900093078613,
                -127.41600036621094
            ],
            "type" : "VEC3"
        },
        {
            "bufferView" : 5,
            "componentType" : 5126,
            "count" : 214,
            "type" : "VEC3"
        },
        {
            "bufferView" : 6,
            "componentType" : 5126,
            "count" : 214,
            "type" : "VEC2"
        },
        {
            "bufferView" : 7,
            "componentType" : 5123,
            "count" : 564,
            "type" : "SCALAR"
        },
        {
            "bufferView" : 8,
            "componentType" : 5126,
            "count" : 588,
            "max" : [
                -91.43260192871094,
                18.452499389648438,
                -114.77100372314453
            ],
            "min" : [
                -94.03309631347656,
                14.385499954223633,
                -120.98100280761719
            ],
            "type" : "VEC3"
        },
        {
            "bufferView" : 9,
            "componentType" : 5126,
            "count" : 588,
            "type" : "VEC3"
        },
        {
            "bufferView" : 10,
            "componentType" : 5126,
            "count" : 588,
            "type" : "VEC2"
        },
        {
            "bufferView" : 11,
            "componentType" : 5123,
            "count" : 2580,
            "type" : "SCALAR"
        }
    ],
    "bufferViews" : [
        {
            "buffer" : 0,
            "byteLength" : 3684,
            "byteOffset" : 0
        },
        {
            "buffer" : 0,
            "byteLength" : 3684,
            "byteOffset" : 3684
        },
        {
            "buffer" : 0,
            "byteLength" : 2456,
            "byteOffset" : 7368
        },
        {
            "buffer" : 0,
            "byteLength" : 1950,
            "byteOffset" : 9824
        },
        {
            "buffer" : 0,
            "byteLength" : 2568,
            "byteOffset" : 11776
        },
        {
            "buffer" : 0,
            "byteLength" : 2568,
            "byteOffset" : 14344
        },
        {
            "buffer" : 0,
            "byteLength" : 1712,
            "byteOffset" : 16912
        },
        {
            "buffer" : 0,
            "byteLength" : 1128,
            "byteOffset" : 18624
        },
        {
            "buffer" : 0,
            "byteLength" : 7056,
            "byteOffset" : 19752
        },
        {
            "buffer" : 0,
            "byteLength" : 7056,
            "byteOffset" : 26808
        },
        {
            "buffer" : 0,
            "byteLength" : 4704,
            "byteOffset" : 33864
        },
        {
            "buffer" : 0,
            "byteLength" : 5160,
            "byteOffset" : 38568
        }
    ],
    "buffers" : [
        {
            "byteLength" : 43728,
            "uri" : "data:application/octet-stream;base64,"
        }
    ]
}
