{
    "asset" : {
        "generator" : "Khronos glTF Blender I/O v1.4.40",
        "version" : "2.0"
    },
    "scene" : 0,
    "scenes" : [
        {
            "name" : "Scene",
            "nodes" : [
                0
            ]
        }
    ],
    "nodes" : [
        {
            "mesh" : 0,
            "name" : "5060e.147",
            "rotation" : [
                0.7071068286895752,
                0,
                0,
                0.7071067094802856
            ],
            "translation" : [
                -1.6708037853240967,
                0,
                0
            ]
        }
    ],
    "materials" : [
        {
            "doubleSided" : true,
            "name" : "Material",
            "pbrMetallicRoughness" : {
                "baseColorFactor" : [
                    0.8000000715255737,
                    0.19073693454265594,
                    4.990263551007956e-05,
                    1
                ],
                "metallicFactor" : 0,
                "roughnessFactor" : 0
            }
        },
        {
            "doubleSided" : true,
            "name" : "Default OBJ.002",
            "pbrMetallicRoughness" : {
                "baseColorFactor" : [
                    0.004895646590739489,
                    0.003999404609203339,
                    0,
                    1
                ],
                "metallicFactor" : 0,
                "roughnessFactor" : 0.5
            }
        }
    ],
    "meshes" : [
        {
            "name" : "5060e.133",
            "primitives" : [
                {
                    "attributes" : {
                        "POSITION" : 0,
                        "NORMAL" : 1,
                        "TEXCOORD_0" : 2
                    },
                    "indices" : 3,
                    "material" : 0
                },
                {
                    "attributes" : {
                        "POSITION" : 4,
                        "NORMAL" : 5,
                        "TEXCOORD_0" : 6
                    },
                    "indices" : 7,
                    "material" : 1
                }
            ]
        }
    ],
    "accessors" : [
        {
            "bufferView" : 0,
            "componentType" : 5126,
            "count" : 51,
            "max" : [
                22.903900146484375,
                -18.297100067138672,
                -182.91299438476562
            ],
            "min" : [
                16.03510093688965,
                -23.678300857543945,
                -189.54400634765625
            ],
            "type" : "VEC3"
        },
        {
            "bufferView" : 1,
            "componentType" : 5126,
            "count" : 51,
            "type" : "VEC3"
        },
        {
            "bufferView" : 2,
            "componentType" : 5126,
            "count" : 51,
            "type" : "VEC2"
        },
        {
            "bufferView" : 3,
            "componentType" : 5123,
            "count" : 210,
            "type" : "SCALAR"
        },
        {
            "bufferView" : 4,
            "componentType" : 5126,
            "count" : 115,
            "max" : [
                17.936599731445312,
                -16.21190071105957,
                -177.88999938964844
            ],
            "min" : [
                9.65077018737793,
                -21.217199325561523,
                -184.66200256347656
            ],
            "type" : "VEC3"
        },
        {
            "bufferView" : 5,
            "componentType" : 5126,
            "count" : 115,
            "type" : "VEC3"
        },
        {
            "bufferView" : 6,
            "componentType" : 5126,
            "count" : 115,
            "type" : "VEC2"
        },
        {
            "bufferView" : 7,
            "componentType" : 5123,
            "count" : 336,
            "type" : "SCALAR"
        }
    ],
    "bufferViews" : [
        {
            "buffer" : 0,
            "byteLength" : 612,
            "byteOffset" : 0
        },
        {
            "buffer" : 0,
            "byteLength" : 612,
            "byteOffset" : 612
        },
        {
            "buffer" : 0,
            "byteLength" : 408,
            "byteOffset" : 1224
        },
        {
            "buffer" : 0,
            "byteLength" : 420,
            "byteOffset" : 1632
        },
        {
            "buffer" : 0,
            "byteLength" : 1380,
            "byteOffset" : 2052
        },
        {
            "buffer" : 0,
            "byteLength" : 1380,
            "byteOffset" : 3432
        },
        {
            "buffer" : 0,
            "byteLength" : 920,
            "byteOffset" : 4812
        },
        {
            "buffer" : 0,
            "byteLength" : 672,
            "byteOffset" : 5732
        }
    ],
    "buffers" : [
        {
            "byteLength" : 6404,
            "uri" : "data:application/octet-stream;base64,"
        }
    ]
}
