{
    "asset" : {
        "generator" : "Khronos glTF Blender I/O v1.4.40",
        "version" : "2.0"
    },
    "scene" : 0,
    "scenes" : [
        {
            "name" : "Scene",
            "nodes" : [
                0
            ]
        }
    ],
    "nodes" : [
        {
            "mesh" : 0,
            "name" : "5060e.039",
            "rotation" : [
                0.7071068286895752,
                0,
                0,
                0.7071067094802856
            ],
            "translation" : [
                -1.4067888259887695,
                0,
                0
            ]
        }
    ],
    "materials" : [
        {
            "doubleSided" : true,
            "name" : "Material.001",
            "pbrMetallicRoughness" : {
                "baseColorFactor" : [
                    0,
                    0.1788620799779892,
                    0.00037383235758170485,
                    1
                ],
                "metallicFactor" : 0,
                "roughnessFactor" : 0
            }
        },
        {
            "doubleSided" : true,
            "name" : "Material.006",
            "pbrMetallicRoughness" : {
                "baseColorFactor" : [
                    0.8000000715255737,
                    0.7860265970230103,
                    0,
                    1
                ],
                "metallicFactor" : 0,
                "roughnessFactor" : 0
            }
        }
    ],
    "meshes" : [
        {
            "name" : "5060e.055",
            "primitives" : [
                {
                    "attributes" : {
                        "POSITION" : 0,
                        "NORMAL" : 1,
                        "TEXCOORD_0" : 2
                    },
                    "indices" : 3,
                    "material" : 0
                },
                {
                    "attributes" : {
                        "POSITION" : 4,
                        "NORMAL" : 5,
                        "TEXCOORD_0" : 6
                    },
                    "indices" : 7,
                    "material" : 1
                }
            ]
        }
    ],
    "accessors" : [
        {
            "bufferView" : 0,
            "componentType" : 5126,
            "count" : 1644,
            "max" : [
                10.966899871826172,
                29.7814998626709,
                -274.89898681640625
            ],
            "min" : [
                -10.966899871826172,
                0.9022030234336853,
                -284.21600341796875
            ],
            "type" : "VEC3"
        },
        {
            "bufferView" : 1,
            "componentType" : 5126,
            "count" : 1644,
            "type" : "VEC3"
        },
        {
            "bufferView" : 2,
            "componentType" : 5126,
            "count" : 1644,
            "type" : "VEC2"
        },
        {
            "bufferView" : 3,
            "componentType" : 5123,
            "count" : 5304,
            "type" : "SCALAR"
        },
        {
            "bufferView" : 4,
            "componentType" : 5126,
            "count" : 684,
            "max" : [
                10.966899871826172,
                29.7814998626709,
                -281.61199951171875
            ],
            "min" : [
                -10.966899871826172,
                1.351289987564087,
                -293.4330139160156
            ],
            "type" : "VEC3"
        },
        {
            "bufferView" : 5,
            "componentType" : 5126,
            "count" : 684,
            "type" : "VEC3"
        },
        {
            "bufferView" : 6,
            "componentType" : 5126,
            "count" : 684,
            "type" : "VEC2"
        },
        {
            "bufferView" : 7,
            "componentType" : 5123,
            "count" : 2802,
            "type" : "SCALAR"
        }
    ],
    "bufferViews" : [
        {
            "buffer" : 0,
            "byteLength" : 19728,
            "byteOffset" : 0
        },
        {
            "buffer" : 0,
            "byteLength" : 19728,
            "byteOffset" : 19728
        },
        {
            "buffer" : 0,
            "byteLength" : 13152,
            "byteOffset" : 39456
        },
        {
            "buffer" : 0,
            "byteLength" : 10608,
            "byteOffset" : 52608
        },
        {
            "buffer" : 0,
            "byteLength" : 8208,
            "byteOffset" : 63216
        },
        {
            "buffer" : 0,
            "byteLength" : 8208,
            "byteOffset" : 71424
        },
        {
            "buffer" : 0,
            "byteLength" : 5472,
            "byteOffset" : 79632
        },
        {
            "buffer" : 0,
            "byteLength" : 5604,
            "byteOffset" : 85104
        }
    ],
    "buffers" : [
        {
            "byteLength" : 90708,
            "uri" : "data:application/octet-stream;base64,"
        }
    ]
}
