{
    "asset" : {
        "generator" : "Khronos glTF Blender I/O v1.4.40",
        "version" : "2.0"
    },
    "scene" : 0,
    "scenes" : [
        {
            "name" : "Scene",
            "nodes" : [
                0,
                1
            ]
        }
    ],
    "nodes" : [
        {
            "mesh" : 0,
            "name" : "5060e.003",
            "rotation" : [
                0.7071068286895752,
                0,
                0,
                0.7071067094802856
            ]
        },
        {
            "mesh" : 1,
            "name" : "5060e.006",
            "rotation" : [
                0.7071068286895752,
                0,
                0,
                0.7071067094802856
            ]
        }
    ],
    "materials" : [
        {
            "doubleSided" : true,
            "name" : "Material.005",
            "pbrMetallicRoughness" : {
                "baseColorFactor" : [
                    0.01599491946399212,
                    0.01599491946399212,
                    0.01599491946399212,
                    1
                ],
                "metallicFactor" : 0,
                "roughnessFactor" : 0.5
            }
        },
        {
            "doubleSided" : true,
            "name" : "Material.004",
            "pbrMetallicRoughness" : {
                "baseColorFactor" : [
                    1,
                    0.9966794848442078,
                    0.04298461228609085,
                    1
                ],
                "metallicFactor" : 0,
                "roughnessFactor" : 0.5
            }
        }
    ],
    "meshes" : [
        {
            "name" : "5060e.003",
            "primitives" : [
                {
                    "attributes" : {
                        "POSITION" : 0,
                        "NORMAL" : 1,
                        "TEXCOORD_0" : 2
                    },
                    "indices" : 3,
                    "material" : 0
                }
            ]
        },
        {
            "name" : "5060e.006",
            "primitives" : [
                {
                    "attributes" : {
                        "POSITION" : 4,
                        "NORMAL" : 5,
                        "TEXCOORD_0" : 6
                    },
                    "indices" : 7,
                    "material" : 1
                }
            ]
        }
    ],
    "accessors" : [
        {
            "bufferView" : 0,
            "componentType" : 5126,
            "count" : 211,
            "max" : [
                -69.54550170898438,
                41.23860168457031,
                -108.80000305175781
            ],
            "min" : [
                -96.60079956054688,
                -12.759900093078613,
                -127.41600036621094
            ],
            "type" : "VEC3"
        },
        {
            "bufferView" : 1,
            "componentType" : 5126,
            "count" : 211,
            "type" : "VEC3"
        },
        {
            "bufferView" : 2,
            "componentType" : 5126,
            "count" : 211,
            "type" : "VEC2"
        },
        {
            "bufferView" : 3,
            "componentType" : 5123,
            "count" : 561,
            "type" : "SCALAR"
        },
        {
            "bufferView" : 4,
            "componentType" : 5126,
            "count" : 822,
            "max" : [
                -80.52249908447266,
                31.992799758911133,
                -114.50599670410156
            ],
            "min" : [
                -94.03309631347656,
                5.52623987197876,
                -132.97000122070312
            ],
            "type" : "VEC3"
        },
        {
            "bufferView" : 5,
            "componentType" : 5126,
            "count" : 822,
            "type" : "VEC3"
        },
        {
            "bufferView" : 6,
            "componentType" : 5126,
            "count" : 822,
            "type" : "VEC2"
        },
        {
            "bufferView" : 7,
            "componentType" : 5123,
            "count" : 3432,
            "type" : "SCALAR"
        }
    ],
    "bufferViews" : [
        {
            "buffer" : 0,
            "byteLength" : 2532,
            "byteOffset" : 0
        },
        {
            "buffer" : 0,
            "byteLength" : 2532,
            "byteOffset" : 2532
        },
        {
            "buffer" : 0,
            "byteLength" : 1688,
            "byteOffset" : 5064
        },
        {
            "buffer" : 0,
            "byteLength" : 1122,
            "byteOffset" : 6752
        },
        {
            "buffer" : 0,
            "byteLength" : 9864,
            "byteOffset" : 7876
        },
        {
            "buffer" : 0,
            "byteLength" : 9864,
            "byteOffset" : 17740
        },
        {
            "buffer" : 0,
            "byteLength" : 6576,
            "byteOffset" : 27604
        },
        {
            "buffer" : 0,
            "byteLength" : 6864,
            "byteOffset" : 34180
        }
    ],
    "buffers" : [
        {
            "byteLength" : 41044,
            "uri" : "data:application/octet-stream;base64,"
        }
    ]
}
