{
    "asset" : {
        "generator" : "Khronos glTF Blender I/O v1.4.40",
        "version" : "2.0"
    },
    "scene" : 0,
    "scenes" : [
        {
            "name" : "Scene",
            "nodes" : [
                0
            ]
        }
    ],
    "nodes" : [
        {
            "mesh" : 0,
            "name" : "5060e.008",
            "rotation" : [
                0.7071068286895752,
                0,
                0,
                0.7071067094802856
            ],
            "translation" : [
                -1.4067888259887695,
                0,
                0
            ]
        }
    ],
    "materials" : [
        {
            "alphaMode" : "BLEND",
            "doubleSided" : true,
            "name" : "Material.004",
            "pbrMetallicRoughness" : {
                "baseColorFactor" : [
                    0.1106889471411705,
                    0.1106889471411705,
                    0.1106889471411705,
                    0.2380952388048172
                ],
                "metallicFactor" : 0,
                "roughnessFactor" : 0.4761904776096344
            }
        }
    ],
    "meshes" : [
        {
            "name" : "5060e.013",
            "primitives" : [
                {
                    "attributes" : {
                        "POSITION" : 0,
                        "NORMAL" : 1,
                        "TEXCOORD_0" : 2
                    },
                    "indices" : 3,
                    "material" : 0
                }
            ]
        }
    ],
    "accessors" : [
        {
            "bufferView" : 0,
            "componentType" : 5126,
            "count" : 249,
            "max" : [
                81.85340118408203,
                24.832300186157227,
                -110.38099670410156
            ],
            "min" : [
                -81.94719696044922,
                -136.28900146484375,
                -275.87799072265625
            ],
            "type" : "VEC3"
        },
        {
            "bufferView" : 1,
            "componentType" : 5126,
            "count" : 249,
            "type" : "VEC3"
        },
        {
            "bufferView" : 2,
            "componentType" : 5126,
            "count" : 249,
            "type" : "VEC2"
        },
        {
            "bufferView" : 3,
            "componentType" : 5123,
            "count" : 753,
            "type" : "SCALAR"
        }
    ],
    "bufferViews" : [
        {
            "buffer" : 0,
            "byteLength" : 2988,
            "byteOffset" : 0
        },
        {
            "buffer" : 0,
            "byteLength" : 2988,
            "byteOffset" : 2988
        },
        {
            "buffer" : 0,
            "byteLength" : 1992,
            "byteOffset" : 5976
        },
        {
            "buffer" : 0,
            "byteLength" : 1506,
            "byteOffset" : 7968
        }
    ],
    "buffers" : [
        {
            "byteLength" : 9476,
            "uri" : "data:application/octet-stream;base64,"
        }
    ]
}
