{
    "asset" : {
        "generator" : "Khronos glTF Blender I/O v1.4.40",
        "version" : "2.0"
    },
    "scene" : 0,
    "scenes" : [
        {
            "name" : "Scene",
            "nodes" : [
                0
            ]
        }
    ],
    "nodes" : [
        {
            "mesh" : 0,
            "name" : "5060e.129",
            "rotation" : [
                0.7071068286895752,
                0,
                0,
                0.7071067094802856
            ],
            "translation" : [
                -1.6708037853240967,
                0,
                0
            ]
        }
    ],
    "materials" : [
        {
            "doubleSided" : true,
            "name" : "Default OBJ",
            "pbrMetallicRoughness" : {
                "baseColorFactor" : [
                    0.014669538475573063,
                    0.014669538475573063,
                    0.014669538475573063,
                    1
                ],
                "metallicFactor" : 0,
                "roughnessFactor" : 0.5
            }
        },
        {
            "doubleSided" : true,
            "name" : "Material.007",
            "pbrMetallicRoughness" : {
                "baseColorFactor" : [
                    0.800000011920929,
                    0.800000011920929,
                    0.800000011920929,
                    1
                ],
                "metallicFactor" : 0,
                "roughnessFactor" : 0
            }
        }
    ],
    "meshes" : [
        {
            "name" : "5060e.131",
            "primitives" : [
                {
                    "attributes" : {
                        "POSITION" : 0,
                        "NORMAL" : 1,
                        "TEXCOORD_0" : 2
                    },
                    "indices" : 3,
                    "material" : 0
                },
                {
                    "attributes" : {
                        "POSITION" : 4,
                        "NORMAL" : 5,
                        "TEXCOORD_0" : 6
                    },
                    "indices" : 7,
                    "material" : 1
                }
            ]
        }
    ],
    "accessors" : [
        {
            "bufferView" : 0,
            "componentType" : 5126,
            "count" : 2005,
            "max" : [
                21.50029945373535,
                -19.821500778198242,
                -173.62600708007812
            ],
            "min" : [
                -21.864500045776367,
                -47.38130187988281,
                -208.76100158691406
            ],
            "type" : "VEC3"
        },
        {
            "bufferView" : 1,
            "componentType" : 5126,
            "count" : 2005,
            "type" : "VEC3"
        },
        {
            "bufferView" : 2,
            "componentType" : 5126,
            "count" : 2005,
            "type" : "VEC2"
        },
        {
            "bufferView" : 3,
            "componentType" : 5123,
            "count" : 7785,
            "type" : "SCALAR"
        },
        {
            "bufferView" : 4,
            "componentType" : 5126,
            "count" : 323,
            "max" : [
                2.4358301162719727,
                -30.48900032043457,
                -187.98500061035156
            ],
            "min" : [
                -2.8963000774383545,
                -33.72269821166992,
                -192.2259979248047
            ],
            "type" : "VEC3"
        },
        {
            "bufferView" : 5,
            "componentType" : 5126,
            "count" : 323,
            "type" : "VEC3"
        },
        {
            "bufferView" : 6,
            "componentType" : 5126,
            "count" : 323,
            "type" : "VEC2"
        },
        {
            "bufferView" : 7,
            "componentType" : 5123,
            "count" : 738,
            "type" : "SCALAR"
        }
    ],
    "bufferViews" : [
        {
            "buffer" : 0,
            "byteLength" : 24060,
            "byteOffset" : 0
        },
        {
            "buffer" : 0,
            "byteLength" : 24060,
            "byteOffset" : 24060
        },
        {
            "buffer" : 0,
            "byteLength" : 16040,
            "byteOffset" : 48120
        },
        {
            "buffer" : 0,
            "byteLength" : 15570,
            "byteOffset" : 64160
        },
        {
            "buffer" : 0,
            "byteLength" : 3876,
            "byteOffset" : 79732
        },
        {
            "buffer" : 0,
            "byteLength" : 3876,
            "byteOffset" : 83608
        },
        {
            "buffer" : 0,
            "byteLength" : 2584,
            "byteOffset" : 87484
        },
        {
            "buffer" : 0,
            "byteLength" : 1476,
            "byteOffset" : 90068
        }
    ],
    "buffers" : [
        {
            "byteLength" : 91544,
            "uri" : "data:application/octet-stream;base64,"
        }
    ]
}
